<?xml version="1.0" standalone="no"?>
<!DOCTYPE svg PUBLIC "-//W3C//DTD SVG 20010904//EN"
 "http://www.w3.org/TR/2001/REC-SVG-20010904/DTD/svg10.dtd">
<svg version="1.0" xmlns="http://www.w3.org/2000/svg"
 width="2000.000000pt" height="2000.000000pt" viewBox="0 0 2000.000000 2000.000000"
 preserveAspectRatio="xMidYMid meet">

<g transform="translate(0.000000,2000.000000) scale(0.100000,-0.100000)"
fill="#000000" stroke="none">
<path d="M2770 11089 c-415 -25 -710 -118 -862 -271 -89 -90 -124 -163 -140
-290 -40 -319 117 -520 493 -633 180 -54 359 -73 819 -85 384 -10 539 -25 651
-59 111 -35 146 -78 137 -170 -12 -125 -120 -176 -425 -202 -172 -14 -538 -6
-641 15 -111 23 -185 61 -242 123 -45 49 -80 123 -80 170 0 10 -71 13 -376 13
l-377 0 7 -81 c15 -163 63 -265 181 -385 89 -90 172 -141 300 -187 255 -91
537 -127 985 -127 366 0 605 23 838 80 213 52 360 131 452 241 105 126 130
202 130 394 0 188 -29 274 -129 378 -128 134 -334 210 -687 252 -77 9 -294 20
-534 25 -439 10 -492 14 -590 37 -124 30 -180 77 -180 151 0 79 49 114 210
149 72 15 132 18 390 18 281 0 313 -2 410 -23 165 -37 244 -88 285 -185 l15
-37 370 0 370 0 0 43 c0 67 -27 173 -57 229 -40 75 -147 178 -238 232 -122 71
-311 128 -535 160 -223 33 -641 44 -950 25z"/>
<path d="M6187 11090 c-445 -29 -778 -122 -993 -275 -189 -135 -282 -265 -350
-490 -27 -86 -28 -99 -28 -310 0 -258 11 -313 95 -482 75 -151 200 -278 379
-383 252 -149 670 -230 1181 -230 666 0 1119 127 1397 394 98 93 192 259 234
413 19 68 21 105 21 288 0 246 -11 304 -92 470 -70 143 -171 252 -324 352
-191 125 -473 208 -827 243 -146 14 -540 20 -693 10z m577 -526 c227 -32 364
-90 472 -198 86 -86 120 -152 136 -264 25 -171 -20 -316 -136 -439 -145 -154
-385 -225 -761 -225 -196 0 -298 11 -440 47 -150 38 -236 83 -319 168 -81 83
-119 147 -141 238 -54 231 32 451 218 558 211 121 607 168 971 115z"/>
<path d="M12217 11090 c-445 -29 -778 -122 -993 -275 -189 -135 -282 -265
-350 -490 -27 -86 -28 -99 -28 -310 0 -258 11 -313 95 -482 75 -151 200 -278
379 -383 252 -149 670 -230 1181 -230 666 0 1119 127 1397 394 98 93 192 259
234 413 19 68 21 105 21 288 0 246 -11 304 -92 470 -70 143 -171 252 -324 352
-191 125 -473 208 -827 243 -146 14 -540 20 -693 10z m577 -526 c227 -32 364
-90 472 -198 86 -86 120 -152 136 -264 25 -171 -20 -316 -136 -439 -145 -154
-385 -225 -761 -225 -196 0 -298 11 -440 47 -150 38 -236 83 -319 168 -81 83
-119 147 -141 238 -54 231 32 451 218 558 211 121 607 168 971 115z"/>
<path d="M14420 10015 l0 -1055 798 0 c972 0 1142 9 1437 75 435 98 686 273
831 578 55 118 68 194 67 417 0 231 -13 294 -94 458 -59 121 -136 207 -259
289 -204 137 -405 209 -705 252 -227 33 -456 41 -1287 41 l-788 0 0 -1055z
m1799 531 c321 -53 503 -172 563 -369 17 -58 20 -87 16 -187 -4 -112 -6 -122
-41 -193 -85 -173 -269 -271 -585 -312 -86 -11 -224 -15 -573 -15 l-459 0 0
551 0 551 488 -5 c393 -3 507 -8 591 -21z"/>
<path d="M8400 10010 l0 -1050 1155 0 1155 0 0 260 0 260 -795 0 -795 0 0 790
0 790 -360 0 -360 0 0 -1050z"/>
<path d="M17640 9105 l0 -205 310 0 310 0 0 205 0 205 -310 0 -310 0 0 -205z"/>
<path d="M7530 7860 l0 -350 115 0 115 0 2 239 3 238 146 -236 146 -236 65 -3
66 -3 148 240 149 240 3 -239 2 -240 115 0 115 0 0 350 0 350 -162 -2 -163 -3
-129 -213 c-103 -170 -132 -210 -141 -200 -7 7 -67 104 -135 216 l-122 202
-169 0 -169 0 0 -350z"/>
<path d="M8850 7860 l0 -350 405 0 405 0 0 80 0 80 -287 2 -288 3 -3 58 -3 57
281 0 280 0 0 80 0 80 -280 0 -280 0 0 50 0 50 285 0 285 0 0 80 0 80 -400 0
-400 0 0 -350z"/>
<path d="M9770 7860 l0 -352 333 4 c275 4 345 7 407 22 146 35 233 94 278 187
18 37 22 63 22 141 0 149 -41 220 -165 283 -106 53 -141 57 -522 62 l-353 5 0
-352z m658 166 c30 -10 69 -32 88 -49 75 -68 64 -195 -21 -247 -64 -39 -128
-50 -312 -50 l-173 0 0 186 0 186 183 -5 c131 -3 197 -9 235 -21z"/>
<path d="M10910 7860 l0 -350 120 0 120 0 0 350 0 350 -120 0 -120 0 0 -350z"/>
<path d="M11415 7903 c-93 -170 -180 -327 -193 -351 l-24 -43 123 3 124 3 33
63 33 62 312 0 312 0 35 -65 35 -65 128 0 c71 0 127 4 125 8 -1 5 -93 162
-203 350 l-199 342 -236 0 -235 0 -170 -307z m558 26 c38 -67 66 -123 64 -125
-2 -3 -101 -3 -220 -2 l-216 3 65 123 66 122 86 0 87 -1 68 -120z"/>
</g>
</svg>
